<svg xmlns="http://www.w3.org/2000/svg" width="240" height="240" viewBox="0 0 240 240"><rect x="0" y="0" width="240" height="240" rx="56" ry="56" fill="#1fa093"/><rect x="58.5" y="58.5" width="19" height="19" rx="4" ry="4" fill="rgba(255,255,255,0.28)"/><rect x="84.5" y="58.5" width="19" height="19" rx="4" ry="4" fill="rgba(255,255,255,0.28)"/><rect x="110.5" y="58.5" width="19" height="19" rx="4" ry="4" fill="rgba(255,255,255,0.28)"/><rect x="136.5" y="58.5" width="19" height="19" rx="4" ry="4" fill="#0c3733"/><rect x="162.5" y="58.5" width="19" height="19" rx="4" ry="4" fill="rgba(255,255,255,0.28)"/><rect x="58.5" y="84.5" width="19" height="19" rx="4" ry="4" fill="rgba(255,255,255,0.28)"/><rect x="84.5" y="84.5" width="19" height="19" rx="4" ry="4" fill="#0c3733"/><rect x="110.5" y="84.5" width="19" height="19" rx="4" ry="4" fill="rgba(255,255,255,0.28)"/><rect x="136.5" y="84.5" width="19" height="19" rx="4" ry="4" fill="#0c3733"/><rect x="162.5" y="84.5" width="19" height="19" rx="4" ry="4" fill="#0c3733"/><rect x="58.5" y="110.5" width="19" height="19" rx="4" ry="4" fill="rgba(255,255,255,0.28)"/><rect x="84.5" y="110.5" width="19" height="19" rx="4" ry="4" fill="#0c3733"/><rect x="110.5" y="110.5" width="19" height="19" rx="4" ry="4" fill="#0c3733"/><rect x="136.5" y="110.5" width="19" height="19" rx="4" ry="4" fill="#0c3733"/><rect x="162.5" y="110.5" width="19" height="19" rx="4" ry="4" fill="#0c3733"/><rect x="58.5" y="136.5" width="19" height="19" rx="4" ry="4" fill="#0c3733"/><rect x="84.5" y="136.5" width="19" height="19" rx="4" ry="4" fill="#0c3733"/><rect x="110.5" y="136.5" width="19" height="19" rx="4" ry="4" fill="#0c3733"/><rect x="136.5" y="136.5" width="19" height="19" rx="4" ry="4" fill="#0c3733"/><rect x="162.5" y="136.5" width="19" height="19" rx="4" ry="4" fill="#0c3733"/><rect x="58.5" y="162.5" width="19" height="19" rx="4" ry="4" fill="#0c3733"/><rect x="84.5" y="162.5" width="19" height="19" rx="4" ry="4" fill="#0c3733"/><rect x="110.5" y="162.5" width="19" height="19" rx="4" ry="4" fill="#0c3733"/><rect x="136.5" y="162.5" width="19" height="19" rx="4" ry="4" fill="#0c3733"/><rect x="162.5" y="162.5" width="19" height="19" rx="4" ry="4" fill="#0c3733"/></svg>