<svg xmlns="http://www.w3.org/2000/svg" width="332" height="332" viewBox="0 0 332 332"><defs><filter id="glow" x="-60%" y="-60%" width="220%" height="220%"><feDropShadow dx="0" dy="0" stdDeviation="5.00" flood-color="#3fd6c8" flood-opacity="0.85"/></filter></defs><rect x="0" y="0" width="332" height="332" rx="24" ry="24" fill="#13201e"/><rect x="28" y="28" width="48" height="48" rx="6" ry="6" fill="#22332f"/><rect x="85" y="28" width="48" height="48" rx="6" ry="6" fill="#22332f"/><rect x="142" y="28" width="48" height="48" rx="6" ry="6" fill="#22332f"/><rect x="199" y="28" width="48" height="48" rx="6" ry="6" fill="#3fd6c8" filter="url(#glow)"/><rect x="256" y="28" width="48" height="48" rx="6" ry="6" fill="#22332f"/><rect x="28" y="85" width="48" height="48" rx="6" ry="6" fill="#22332f"/><rect x="85" y="85" width="48" height="48" rx="6" ry="6" fill="#3fd6c8" filter="url(#glow)"/><rect x="142" y="85" width="48" height="48" rx="6" ry="6" fill="#22332f"/><rect x="199" y="85" width="48" height="48" rx="6" ry="6" fill="#3fd6c8" filter="url(#glow)"/><rect x="256" y="85" width="48" height="48" rx="6" ry="6" fill="#3fd6c8" filter="url(#glow)"/><rect x="28" y="142" width="48" height="48" rx="6" ry="6" fill="#22332f"/><rect x="85" y="142" width="48" height="48" rx="6" ry="6" fill="#3fd6c8" filter="url(#glow)"/><rect x="142" y="142" width="48" height="48" rx="6" ry="6" fill="#3fd6c8" filter="url(#glow)"/><rect x="199" y="142" width="48" height="48" rx="6" ry="6" fill="#3fd6c8" filter="url(#glow)"/><rect x="256" y="142" width="48" height="48" rx="6" ry="6" fill="#3fd6c8" filter="url(#glow)"/><rect x="28" y="199" width="48" height="48" rx="6" ry="6" fill="#3fd6c8" filter="url(#glow)"/><rect x="85" y="199" width="48" height="48" rx="6" ry="6" fill="#3fd6c8" filter="url(#glow)"/><rect x="142" y="199" width="48" height="48" rx="6" ry="6" fill="#3fd6c8" filter="url(#glow)"/><rect x="199" y="199" width="48" height="48" rx="6" ry="6" fill="#3fd6c8" filter="url(#glow)"/><rect x="256" y="199" width="48" height="48" rx="6" ry="6" fill="#3fd6c8" filter="url(#glow)"/><rect x="28" y="256" width="48" height="48" rx="6" ry="6" fill="#3fd6c8" filter="url(#glow)"/><rect x="85" y="256" width="48" height="48" rx="6" ry="6" fill="#3fd6c8" filter="url(#glow)"/><rect x="142" y="256" width="48" height="48" rx="6" ry="6" fill="#3fd6c8" filter="url(#glow)"/><rect x="199" y="256" width="48" height="48" rx="6" ry="6" fill="#3fd6c8" filter="url(#glow)"/><rect x="256" y="256" width="48" height="48" rx="6" ry="6" fill="#3fd6c8" filter="url(#glow)"/></svg>